<svg xmlns="http://www.w3.org/2000/svg" fill="none" viewBox="0 0 77 62" height="62" width="77">
<path fill="#693691" d="M58.014 39.365C54.702 39.4046 51.3902 39.2687 48.0928 38.9581C41.4786 38.4006 36.8823 38.1441 33.6089 38.211C31.9831 38.2062 30.3614 38.3744 28.7716 38.7128C27.8478 38.9011 26.9806 39.3 26.238 39.878C25.8342 40.2134 25.4779 40.6016 25.1786 41.032C24.6193 41.761 24.3142 42.6516 24.3098 43.5687C24.3174 44.0389 24.4405 44.5002 24.6685 44.9123C24.9383 45.3879 25.3237 45.7885 25.7896 46.0775C26.8602 46.7744 28.6539 47.2538 31.3948 47.1925L32.2132 47.159C32.2132 46.9583 32.2132 46.7576 32.2132 46.5625C32.2132 46.3674 32.2132 46.2559 32.2132 46.1054C32.2132 45.4029 32.2804 44.7785 32.3533 44.2321C32.3869 43.9701 32.4318 43.7359 32.4822 43.5074C32.0506 43.5074 31.4621 43.552 30.8007 43.6244C29.9964 43.7067 29.2011 43.8596 28.424 44.0816C28.3589 44.101 28.2906 44.1074 28.2229 44.1006C28.1553 44.0937 28.0896 44.0736 28.0298 44.0415C27.9699 44.0094 27.917 43.9659 27.874 43.9135C27.8311 43.8611 27.7989 43.8007 27.7794 43.7359C27.7599 43.6711 27.7535 43.6032 27.7604 43.5359C27.7673 43.4686 27.7874 43.4033 27.8197 43.3438C27.852 43.2842 27.8957 43.2316 27.9484 43.1889C28.0012 43.1462 28.0618 43.1142 28.127 43.0948C28.9648 42.856 29.8219 42.6899 30.6886 42.5986C31.4957 42.5094 32.2076 42.4815 32.6616 42.476H32.8466C32.9468 42.2692 33.0814 42.0808 33.2445 41.9184C33.4855 41.676 33.794 41.511 34.1302 41.4446C34.363 41.3989 34.5992 41.3728 34.8364 41.3665C35.0858 41.364 35.3351 41.3808 35.5819 41.4167C35.7677 41.4423 35.9549 41.4553 36.1424 41.4557C36.2915 41.4516 36.4398 41.4329 36.5852 41.4C36.6863 41.376 36.7897 41.3629 36.8935 41.3609C37.145 41.3532 37.3918 41.4297 37.5942 41.5784C37.7561 41.7024 37.8834 41.8655 37.9641 42.0522C37.9777 42.0791 37.989 42.1071 37.9978 42.1359L38.4518 42.1024C39.0123 42.069 39.741 42.0355 40.7219 42.0188C43.3059 41.9686 47.4201 42.0188 52.8572 42.4035C56.1194 42.6376 58.9445 42.7547 61.3099 42.7101C62.7731 42.6973 64.233 42.5706 65.6763 42.331C66.6602 42.185 67.6095 41.8639 68.479 41.3832C68.8844 41.1519 69.2314 40.8315 69.4935 40.4466C69.83 40.0111 70.0254 39.4842 70.054 38.9358C70.0478 38.6944 69.9803 38.4585 69.8578 38.25C69.7327 38.0315 69.5627 37.8415 69.359 37.6925C68.9956 37.4334 68.5778 37.26 68.137 37.1852C68.081 37.2354 68.0249 37.2911 67.9521 37.3469C67.5097 37.6948 67.0138 37.9697 66.4835 38.1608C65.0317 38.7239 62.4982 39.2758 58.014 39.365Z"></path>
<path fill="white" d="M49.5054 24.3178L49.5951 24.4517C50.256 24.5306 50.9076 24.6744 51.5401 24.8809C51.7475 24.9478 51.9661 25.0259 52.1903 25.1151H52.2744L52.6107 25.1987C52.9021 25.2656 53.3393 25.3548 53.8999 25.4384C55.1688 25.6323 56.4501 25.7347 57.7338 25.7451C55.1947 25.5778 54.3707 24.1617 54.1409 23.2642C52.7732 23.0857 51.3383 22.846 49.752 22.5171C49.7609 22.6712 49.7609 22.8257 49.752 22.9798C49.7599 23.2169 49.743 23.4542 49.7016 23.6879C49.6776 23.9085 49.6109 24.1224 49.5054 24.3178Z"></path>
<path fill="#75FCFC" d="M35.5876 44.8175C35.7788 44.4089 36.0077 44.0188 36.2714 43.6523C36.5134 43.3069 36.7774 42.9773 37.0618 42.6655V42.6321C37.0507 42.5637 37.0279 42.4977 36.9945 42.4369C36.9854 42.4206 36.9741 42.4056 36.9609 42.3923H36.9048C36.8713 42.3877 36.8374 42.3877 36.8039 42.3923C36.5892 42.444 36.369 42.4702 36.1481 42.4704C35.9088 42.4809 35.6691 42.4753 35.4306 42.4537C35.23 42.4266 35.0277 42.4136 34.8253 42.4146C34.652 42.4162 34.4792 42.4349 34.3096 42.4704C34.1713 42.4978 34.0444 42.5658 33.9453 42.6655C33.8079 42.8165 33.7013 42.9926 33.6314 43.184C33.4961 43.5625 33.4059 43.9554 33.3623 44.3548C33.2877 44.943 33.2446 45.5348 33.2334 46.1277C33.2334 46.2615 33.2334 46.3953 33.2334 46.5291C33.2396 46.8743 33.2677 47.2188 33.3175 47.5605C33.3976 48.1913 33.5383 48.813 33.7379 49.417C33.8878 49.8974 34.1068 50.3537 34.3881 50.7717C34.4838 50.9258 34.6143 51.0557 34.7692 51.1508C34.7978 51.1686 34.8308 51.1782 34.8645 51.1787H34.8925C34.9245 51.1502 34.9511 51.1162 34.971 51.0784C35.0703 50.8808 35.1348 50.6677 35.1616 50.4484C35.2548 49.7388 35.2848 49.0224 35.2513 48.3075C35.2513 48.0176 35.2513 47.75 35.2513 47.4601C35.2513 47.304 35.2513 47.1479 35.2513 47.003C35.2513 46.7131 35.2513 46.4454 35.2513 46.2057C35.2758 45.7262 35.3899 45.2555 35.5876 44.8175Z"></path>
<path fill="#693691" d="M68.7257 42.4147C68.1914 42.6938 67.6274 42.9126 67.0441 43.067C65.1651 43.5195 63.2376 43.7423 61.3044 43.7304C58.8885 43.7806 56.0355 43.6579 52.7564 43.4238C47.3474 43.0335 43.2668 42.9889 40.7164 43.0391C39.9205 43.0391 39.2759 43.0837 38.7882 43.106L38.0035 43.1617L37.9474 43.2175L37.9138 43.2454L37.8017 43.3624C37.7064 43.4684 37.5719 43.6245 37.4261 43.814C37.07 44.2477 36.7688 44.7233 36.5293 45.2301C36.3737 45.542 36.2805 45.8809 36.2546 46.2281C36.2546 46.412 36.2546 46.6406 36.2546 46.8915H37.0954C41.0863 46.8134 45.3407 47.0699 49.2924 47.3319C53.2441 47.594 56.9099 47.8616 59.6901 47.8058C60.4395 47.7972 61.1879 47.7488 61.9322 47.6609C63.2834 47.5052 64.6211 47.2499 65.9343 46.8971C66.9283 46.6478 67.8749 46.2392 68.7369 45.6873C69.1001 45.4566 69.3944 45.1331 69.5889 44.7506C69.6687 44.5758 69.707 44.3851 69.701 44.1931C69.6829 43.8799 69.5886 43.5757 69.4263 43.3067C69.2307 42.9817 68.9954 42.6821 68.7257 42.4147Z"></path>
<path fill="#7E4D9F" d="M69.7457 24.368C66.2265 25.8936 62.4406 26.7176 58.6025 26.7932C57.3256 26.8195 56.0485 26.7599 54.7797 26.6148C55.1819 26.9368 55.5568 27.2911 55.9008 27.6741C56.9826 28.8854 57.7792 30.3214 58.2325 31.8777C58.2576 32.0037 58.2347 32.1345 58.1683 32.2447C58.1019 32.3549 57.9968 32.4367 57.8733 32.4742C57.7497 32.5117 57.6166 32.5022 57.4997 32.4476C57.3827 32.393 57.2903 32.2972 57.2404 32.1787C56.8368 30.7853 56.1308 29.4969 55.1721 28.4044C54.4328 27.5806 53.5449 26.9018 52.5544 26.4029C51.6864 25.9684 50.7562 25.6694 49.7967 25.5165C49.7806 25.5901 49.76 25.6628 49.735 25.7339C49.6667 25.9356 49.5862 26.1329 49.494 26.3249C49.2224 26.8935 48.9056 27.4398 48.5467 27.9584C47.4873 29.4838 46.1182 30.7714 44.5278 31.7383C43.1827 32.5491 41.6922 33.0925 40.1389 33.3384C39.0265 33.5192 37.9026 33.6217 36.7757 33.645C32.3532 33.7398 30.2344 32.385 30.1616 32.3349C30.0565 32.257 29.9852 32.1423 29.9621 32.014C29.9389 31.8857 29.9658 31.7535 30.0372 31.6442C30.1085 31.5349 30.219 31.4567 30.3462 31.4255C30.4735 31.3943 30.6079 31.4125 30.7221 31.4763L30.7782 31.5097L31.036 31.638C31.3882 31.8025 31.7515 31.9423 32.1234 32.0561C33.6221 32.4819 35.1789 32.67 36.7365 32.6136C37.8107 32.5874 38.8819 32.4887 39.9427 32.3181C42.1283 31.9694 44.1629 30.9905 45.7945 29.5027C46.9158 28.499 47.8395 27.2966 48.5187 25.9569C48.6089 25.7755 48.6893 25.5894 48.7597 25.3994C48.7617 25.3623 48.7617 25.3251 48.7597 25.2879C48.754 25.1872 48.7232 25.0895 48.67 25.0036L48.6252 24.9367C45.262 26.3249 41.3832 26.8266 37.751 26.8991C33.5122 26.9552 29.2797 26.5533 25.1281 25.7005C25.0618 25.6855 24.9992 25.6576 24.9438 25.6185C24.8884 25.5795 24.8412 25.5299 24.805 25.4727C24.732 25.3572 24.7081 25.2175 24.7385 25.0844C24.769 24.9513 24.8514 24.8358 24.9675 24.7631C25.0837 24.6904 25.2241 24.6666 25.3579 24.6969H25.4084L25.5989 24.7415L26.3388 24.8865C26.1205 23.9948 26.0262 23.0775 26.0586 22.1603L25.8792 22.1268C25.8129 22.1122 25.7502 22.0847 25.6947 22.046C25.6391 22.0072 25.5918 21.958 25.5553 21.901C25.5189 21.8441 25.4941 21.7805 25.4823 21.7141C25.4706 21.6476 25.4721 21.5795 25.4868 21.5136C25.5016 21.4477 25.5292 21.3853 25.5681 21.33C25.6071 21.2748 25.6566 21.2277 25.7139 21.1914C25.7711 21.1552 25.835 21.1305 25.9018 21.1188C25.9687 21.1071 26.0372 21.1087 26.1034 21.1233C30.5566 22.1259 35.1139 22.5975 39.6792 22.5282C41.8158 22.4868 43.947 22.3006 46.058 21.9707C47.7396 21.7087 49.04 21.4132 49.8527 21.2237C50.0955 21.1704 50.3336 21.0977 50.5646 21.0062C50.6802 20.9646 50.7881 20.9043 50.8841 20.8278C50.8378 20.7634 50.7831 20.7053 50.7215 20.655C50.6235 20.5735 50.5185 20.5008 50.4076 20.4376L50.2171 20.3372L50.1554 20.1198C49.5624 17.7385 48.1802 15.6252 46.2318 14.121C44.3148 12.677 41.7476 11.8017 38.547 11.6735H38.0145C36.6486 11.7095 35.3011 11.9968 34.0404 12.5209C32.9444 12.9785 31.912 13.5744 30.9687 14.2938C29.9452 15.0546 29.0256 15.9448 28.2334 16.942C28.1929 16.9962 28.1421 17.0419 28.0838 17.0765C28.0256 17.1112 27.9611 17.1341 27.8939 17.1439C27.8268 17.1537 27.7583 17.1503 27.6925 17.1338C27.6267 17.1174 27.5648 17.0882 27.5103 17.0479C27.4558 17.0076 27.4099 16.9571 27.375 16.8992C27.3402 16.8412 27.3172 16.777 27.3073 16.7102C27.2974 16.6435 27.3009 16.5754 27.3174 16.5099C27.334 16.4445 27.3633 16.3829 27.4038 16.3287C27.8986 15.6916 28.4481 15.0984 29.0461 14.5558C30.3758 13.3109 31.9143 12.3071 33.592 11.5899C34.989 10.9996 36.4859 10.678 38.0033 10.6421C38.2275 10.6421 38.4573 10.6421 38.6927 10.6421C42.0559 10.7759 44.8585 11.7014 46.9604 13.2959C47.6537 13.8184 48.2822 14.421 48.8326 15.091C49.5319 14.2872 50.3176 13.5618 51.1756 12.9279C53.3426 11.2565 55.985 10.3082 58.7258 10.2184C58.9668 10.2184 59.2078 10.2184 59.4545 10.2184C60.6389 10.26 61.8162 10.4187 62.9689 10.6923C59.8682 7.47134 56.0601 5.0079 51.8426 3.49481C47.9476 2.13229 43.8345 1.49171 39.7073 1.60485C36.2883 1.65053 32.8925 2.17031 29.6179 3.14916L29.4553 3.20491L29.2872 3.15473C27.0754 2.42815 24.7551 2.0831 22.4264 2.13449C19.4061 2.21427 16.4257 2.84153 13.6318 3.98543C11.2196 4.97168 8.95603 6.28497 6.90552 7.888C5.87661 8.66176 4.93671 9.54612 4.10291 10.525C3.21877 11.6151 2.48022 12.8144 1.90567 14.0931C1.3532 15.2261 1.05121 16.4637 1.02004 17.7225C1.0061 18.3554 1.18595 18.9776 1.53572 19.5065C1.95312 20.0491 2.54787 20.4296 3.21729 20.5825C3.88128 20.753 4.56673 20.8263 5.25198 20.8C5.54906 20.8 5.86295 20.7999 6.19927 20.7442C8.27618 20.4961 10.293 19.8866 12.1576 18.9434C14.0135 18.0318 15.7793 16.9492 17.4321 15.7099C19.3388 14.2953 21.122 12.7231 22.7627 11.0101C22.8072 10.9538 22.863 10.9073 22.9264 10.8735C22.9899 10.8397 23.0597 10.8194 23.1315 10.8138C23.2033 10.8082 23.2754 10.8174 23.3434 10.8409C23.4115 10.8644 23.4738 10.9017 23.5266 10.9503C23.5794 10.999 23.6215 11.058 23.6503 11.1237C23.679 11.1893 23.6938 11.2602 23.6936 11.3318C23.6935 11.4034 23.6784 11.4742 23.6494 11.5397C23.6204 11.6053 23.578 11.6641 23.525 11.7125C22.528 12.7484 21.4764 13.731 20.3749 14.6562C18.0358 16.6751 15.4569 18.4014 12.6957 19.7964C12.1352 20.0752 11.541 20.3539 10.9469 20.5602C10.9469 20.6271 10.9469 20.6996 10.9469 20.7832C10.902 21.1122 10.8404 21.5972 10.7843 22.2105C10.6301 23.8783 10.5702 25.5535 10.605 27.2281C10.6495 30.7364 11.1795 34.222 12.18 37.5866C13.2965 41.449 15.3793 44.9668 18.2337 47.8113C20.4655 49.943 23.1268 51.5791 26.0417 52.6115C30.671 54.3328 35.5841 55.1744 40.5256 55.0924C49.5556 54.914 56.5846 51.5467 60.626 49.2386C60.9342 49.0657 61.2201 48.8985 61.4892 48.7368C60.9286 48.787 60.3681 48.8149 59.7403 48.826C56.8761 48.8818 53.2046 48.6142 49.253 48.3521C45.3013 48.0901 41.075 47.8392 37.1457 47.9173H36.3049C36.3049 48.0288 36.3049 48.1459 36.3049 48.2574C36.3049 48.7814 36.3049 49.3222 36.3049 49.8295C36.2875 50.3009 36.2064 50.7678 36.0639 51.2177C35.976 51.5003 35.8111 51.7531 35.5874 51.9481C35.4441 52.0675 35.2723 52.1481 35.0886 52.1822C35.027 52.1877 34.9651 52.1877 34.9036 52.1822C34.7082 52.1812 34.516 52.1334 34.3431 52.0429C34.1706 51.9505 34.0137 51.832 33.8778 51.6916C33.5883 51.3806 33.3517 51.0247 33.1772 50.6379C32.8104 49.8451 32.5521 49.007 32.4093 48.1459C32.0898 48.1459 31.7759 48.1793 31.4732 48.1849C29.7605 48.2759 28.0465 48.0316 26.4285 47.4657C25.3399 47.0918 24.4175 46.35 23.8221 45.3694C23.5075 44.8101 23.338 44.1816 23.3288 43.5408C23.3372 42.4082 23.7105 41.3081 24.3938 40.402C24.7276 39.9232 25.1212 39.4886 25.5653 39.1086C26.0966 38.6772 26.6948 38.3345 27.3366 38.0939C28.7603 37.5364 30.6997 37.2632 33.5696 37.2075C36.9327 37.1406 41.5346 37.3859 48.1431 37.9601C51.4036 38.2632 54.6778 38.3972 57.9523 38.3615C61.8255 38.2835 64.1685 37.8486 65.5473 37.4082C66.2167 37.247 66.8387 36.9319 67.3634 36.4883V36.1203C67.3441 35.3153 67.256 34.5133 67.1 33.723C66.9282 32.827 66.634 31.9585 66.2256 31.1418C65.0568 31.7516 63.8019 32.182 62.5037 32.4185C62.4371 32.4314 62.3685 32.4312 62.302 32.4177C62.2355 32.4042 62.1723 32.3778 62.1161 32.34C62.0598 32.3022 62.0116 32.2537 61.9743 32.1973C61.9369 32.141 61.9111 32.0778 61.8983 32.0115C61.8845 31.9456 61.884 31.8775 61.8968 31.8114C61.9097 31.7453 61.9357 31.6823 61.9732 31.6263C62.0108 31.5702 62.0592 31.5222 62.1156 31.4849C62.1721 31.4477 62.2354 31.422 62.3019 31.4094C63.6706 31.1571 64.9837 30.6664 66.1807 29.9599C66.8597 29.5506 67.4752 29.0454 68.008 28.4601C68.8239 27.5529 69.4151 26.4685 69.7344 25.2935C69.7961 25.0816 69.8353 24.9144 69.869 24.7862C69.888 24.7114 69.8974 24.6346 69.897 24.5576C69.8985 24.4693 69.8752 24.3825 69.8297 24.3067L69.7457 24.368Z"></path>
<path fill="white" d="M69.3814 23.3812C69.41 23.334 69.4325 23.2834 69.4486 23.2307C69.5037 23.0273 69.5264 22.8166 69.5159 22.6063C69.5246 22.4707 69.5246 22.3348 69.5159 22.1993C68.8321 22.3888 68.0193 22.6174 67.072 22.8348C65.9181 23.0966 64.7504 23.2939 63.5744 23.4258C63.0102 24.0973 62.3161 24.6492 61.5332 25.0485C60.7504 25.4479 59.8948 25.6867 59.0173 25.7506C62.5812 25.6321 66.0902 24.8432 69.359 23.4258C69.3686 23.4121 69.3762 23.3971 69.3814 23.3812Z"></path>
<path fill="#7E4D9F" d="M71.2535 19.9748L71.0573 19.8689L70.9957 19.657C70.4055 17.2745 69.0228 15.1604 67.072 13.6582C65.1606 12.2087 62.5878 11.339 59.3873 11.2108C59.1574 11.2108 58.9388 11.2108 58.7146 11.2108C56.2077 11.2936 53.7901 12.1575 51.8034 13.6805C50.9315 14.3311 50.1378 15.0794 49.438 15.9106C50.2042 17.0498 50.7832 18.3032 51.1532 19.6236L51.198 19.6515C51.3638 19.7639 51.5162 19.8949 51.6521 20.0417C51.7719 20.168 51.867 20.3155 51.9323 20.4766C51.9749 20.5872 51.9995 20.7039 52.0052 20.8222C52.0059 21.0027 51.9575 21.1799 51.8651 21.3351C51.7646 21.4919 51.633 21.6266 51.4783 21.731C51.428 21.7658 51.3756 21.7975 51.3213 21.8258C54.2755 22.3973 57.2804 22.6682 60.2897 22.6341C62.4726 22.5958 64.6458 22.3343 66.7749 21.8536C67.896 21.6028 68.7872 21.3351 69.5776 21.1177C69.6336 21.0789 69.6963 21.0505 69.7625 21.0341C69.8128 21.0286 69.8636 21.0286 69.9139 21.0341L70.6762 20.839C70.9169 20.7873 71.1531 20.7164 71.3824 20.6271C71.4984 20.5838 71.6064 20.5216 71.7019 20.4431C71.6559 20.3784 71.6012 20.3203 71.5394 20.2703C71.4545 20.1623 71.3587 20.0633 71.2535 19.9748Z"></path>
<path fill="#7E4D9F" d="M72.4923 6.96812C70.136 4.69406 67.3247 2.93886 64.2414 1.81672C62.6365 1.23832 60.9368 0.96413 59.2304 1.00833C56.8947 1.0874 54.5977 1.62354 52.4705 2.58609C57.3124 4.38147 61.6144 7.37474 64.9701 11.2832C65.9584 11.6773 66.8895 12.2004 67.7391 12.8387C69.1654 13.9144 70.3174 15.3085 71.1022 16.9085C71.2311 16.9085 71.3993 16.9085 71.6011 16.9085C72.2512 16.8997 72.8968 16.7983 73.5181 16.6075C74.2273 16.4012 74.8555 15.9827 75.3173 15.4088C75.6681 14.9359 75.8902 14.3809 75.9619 13.7976C75.995 13.5893 76.0081 13.3784 76.0012 13.1676C75.9361 12.1075 75.615 11.0787 75.0651 10.1682C74.3589 8.98935 73.4932 7.91258 72.4923 6.96812Z"></path>
<path fill="white" d="M26.4117 24.8754C27.0563 24.998 27.9812 25.1542 29.1023 25.3103C31.4596 25.6404 33.8351 25.8266 36.2153 25.8678C35.5866 25.743 35.0091 25.4361 34.5553 24.9857C34.1016 24.5354 33.7918 23.9617 33.6649 23.3367C31.1295 23.0975 28.6115 22.7009 26.1259 22.1492C26.0954 23.0666 26.1915 23.9839 26.4117 24.8754Z"></path>
<path fill="white" d="M43.334 23.3478C42.4376 24.4915 41.2084 25.3325 39.814 25.7562C42.8129 25.6115 45.7655 24.9631 48.5469 23.8384C48.565 23.8294 48.5804 23.816 48.5917 23.7994C48.6259 23.7525 48.6506 23.6995 48.6646 23.6433C48.7193 23.4418 48.742 23.2329 48.7319 23.0244C48.7281 22.864 48.715 22.7039 48.6926 22.545C48.0144 22.6844 47.2073 22.8405 46.2656 22.9854C45.3239 23.1304 44.4271 23.253 43.334 23.3478Z"></path>
<path fill="black" d="M75.9283 9.67203C74.7499 7.72899 73.211 6.02628 71.3937 4.65443C69.3481 3.04574 67.0589 1.76992 64.6114 0.874509C62.8861 0.25306 61.0591 -0.0419165 59.2248 0.00479406C56.3832 0.08698 53.5986 0.817535 51.086 2.14006C47.3983 0.995888 43.5466 0.462853 39.685 0.562305C36.2168 0.613003 32.7716 1.13253 29.4442 2.10661C27.1685 1.38174 24.7874 1.03882 22.3985 1.09194C18.2814 1.23271 14.2528 2.3184 10.6275 4.26418C9.08853 5.06019 7.6252 5.99318 6.25543 7.05173C5.17699 7.87146 4.19207 8.80622 3.31829 9.83928C2.37793 11.0004 1.59056 12.2763 0.975308 13.6359C0.364697 14.9068 0.0322677 16.2921 0 17.7002C0.00282802 18.2592 0.109237 18.813 0.313893 19.3337C0.469886 19.7211 0.693837 20.0779 0.975308 20.3874C1.44593 20.8865 2.03892 21.2554 2.69611 21.4578C3.53007 21.7146 4.4024 21.8258 5.27451 21.7867C5.59962 21.7867 5.94714 21.7867 6.30587 21.7254C7.51791 21.5984 8.71181 21.3366 9.86519 20.9449C9.61489 23.0314 9.51187 25.1328 9.5569 27.2336C9.64098 31.3536 10.3024 36.6834 12.6286 41.6285C13.8162 44.2064 15.469 46.5457 17.5051 48.5305C19.8392 50.7624 22.6255 52.473 25.6775 53.5481C30.4265 55.3157 35.4671 56.1799 40.537 56.0959C45.8747 55.963 51.1352 54.7965 56.0242 52.6617C57.7736 51.9055 59.4785 51.0511 61.1305 50.1027C62.4534 49.3501 63.4567 48.7089 64.0957 48.3354C65.4416 48.1116 66.7578 47.7375 68.0194 47.2204C68.7409 46.9301 69.3994 46.5042 69.9588 45.966C70.1912 45.7203 70.3807 45.4376 70.5193 45.1297C70.6569 44.8209 70.7257 44.4862 70.7211 44.1485C70.6995 43.6649 70.559 43.194 70.3119 42.777C70.1103 42.4326 69.8716 42.1111 69.6 41.8181C69.8927 41.581 70.1495 41.3031 70.3623 40.993C70.8087 40.3805 71.057 39.6474 71.0742 38.8912C71.0674 38.4755 70.9535 38.0686 70.7435 37.7092C70.4375 37.2285 70.0027 36.8424 69.4879 36.5942C69.1559 36.4215 68.8012 36.2958 68.4341 36.2207C68.4312 36.1743 68.4312 36.1277 68.4341 36.0813C68.4159 35.2145 68.3221 34.3508 68.1539 33.5C67.9582 32.488 67.6204 31.5084 67.1505 30.5898C68.3472 29.7855 69.3301 28.7047 70.0148 27.4399C70.2649 26.9663 70.4731 26.472 70.637 25.9625C70.7715 25.5499 70.8444 25.221 70.8836 25.0649C70.93 24.8998 70.9526 24.729 70.9509 24.5576C70.9468 24.338 70.8972 24.1216 70.8052 23.922C70.72 23.7453 70.6042 23.5849 70.4632 23.4481C70.4771 23.4004 70.4883 23.3521 70.4969 23.3032C70.5401 23.0697 70.5589 22.8324 70.5529 22.5951C70.5475 22.3694 70.5288 22.1441 70.4969 21.9205L70.9229 21.8146C71.3984 21.7276 71.8529 21.5517 72.2625 21.2961C72.4196 21.1947 72.5518 21.0594 72.6493 20.9003C72.7442 20.7461 72.7928 20.5681 72.7894 20.3874C72.7837 20.269 72.7591 20.1524 72.7165 20.0417C72.6496 19.8828 72.5568 19.7359 72.4419 19.6069C72.3039 19.4616 72.1497 19.3325 71.9822 19.2222L71.9374 19.1887C71.8141 18.765 71.6796 18.3525 71.5226 17.9511H71.5843C72.6366 17.9477 73.6748 17.7096 74.6223 17.2542C75.2013 16.9675 75.7073 16.5539 76.1021 16.0444C76.5547 15.4326 76.8458 14.7176 76.9485 13.9649C76.9878 13.6972 77.0046 13.4269 76.9989 13.1565C76.933 11.9255 76.5655 10.7293 75.9283 9.67203ZM69.6897 44.1819C69.6957 44.3739 69.6574 44.5646 69.5776 44.7395C69.3831 45.122 69.0889 45.4454 68.7256 45.6761C67.8637 46.228 66.9171 46.6367 65.923 46.8859C64.6098 47.2387 63.2721 47.494 61.9209 47.6497C61.1766 47.7376 60.4282 47.786 59.6788 47.7946C56.8762 47.8504 53.2384 47.5828 49.2811 47.3207C45.3238 47.0587 41.0751 46.8022 37.0841 46.8803H36.2434C36.2434 46.6294 36.2434 46.4008 36.2434 46.2169C36.2692 45.8697 36.3625 45.5308 36.518 45.2189C36.7575 44.7121 37.0587 44.2365 37.4148 43.8028C37.5606 43.6133 37.6951 43.4572 37.7904 43.3513L37.9025 43.2342L37.9361 43.2063L37.9922 43.1506L38.7769 43.0948C39.2646 43.0948 39.898 43.0446 40.7051 43.0279C43.2555 42.9777 47.3361 43.0279 52.7451 43.4126C56.0242 43.6467 58.8772 43.7694 61.2931 43.7192C63.2296 43.7356 65.1609 43.5166 67.044 43.0669C67.6273 42.9126 68.1913 42.6938 68.7256 42.4146C68.9867 42.6799 69.2144 42.9757 69.4038 43.2955C69.5701 43.5635 69.6682 43.8678 69.6897 44.1819ZM35.2344 47.4713C35.2344 47.7444 35.2344 48.0288 35.2344 48.3187C35.268 49.0335 35.2379 49.7499 35.1447 50.4595C35.1179 50.6788 35.0535 50.8919 34.9542 51.0895C34.9342 51.1274 34.9077 51.1613 34.8757 51.1899H34.8477C34.8139 51.1894 34.781 51.1797 34.7524 51.162C34.5974 51.0668 34.4669 50.937 34.3712 50.7829C34.0899 50.3649 33.8709 49.9085 33.721 49.4281C33.5215 48.8241 33.3807 48.2024 33.3006 47.5716C33.2508 47.2299 33.2227 46.8854 33.2165 46.5402C33.2165 46.4064 33.2165 46.2726 33.2165 46.1388C33.2278 45.546 33.2708 44.9542 33.3455 44.3659C33.389 43.9666 33.4793 43.5737 33.6145 43.1952C33.6844 43.0037 33.791 42.8276 33.9284 42.6767C34.0275 42.5769 34.1544 42.5089 34.2927 42.4815C34.4624 42.446 34.6351 42.4273 34.8084 42.4258C35.0109 42.4247 35.2132 42.4378 35.4138 42.4648C35.6498 42.4955 35.8876 42.5104 36.1256 42.5094C36.346 42.4978 36.5643 42.4604 36.7759 42.3979C36.8093 42.3933 36.8433 42.3933 36.8767 42.3979H36.9328C36.946 42.4112 36.9573 42.4262 36.9664 42.4425C36.9999 42.5033 37.0226 42.5693 37.0337 42.6376V42.6711C36.7493 42.9829 36.4853 43.3125 36.2434 43.6579C35.9796 44.0244 35.7507 44.4145 35.5595 44.8231C35.3554 45.2561 35.2338 45.723 35.2008 46.2001C35.2008 46.4399 35.2008 46.7075 35.2008 46.9974C35.2288 47.1367 35.2344 47.2929 35.2344 47.4713ZM68.1315 37.2242C68.5722 37.299 68.99 37.4725 69.3534 37.7315C69.5571 37.8806 69.7271 38.0705 69.8523 38.2891C69.9747 38.4975 70.0422 38.7334 70.0484 38.9748C70.0199 39.5233 69.8244 40.0502 69.4879 40.4856C69.2258 40.8706 68.8788 41.1909 68.4734 41.4223C67.604 41.903 66.6546 42.224 65.6708 42.37C64.2275 42.6096 62.7675 42.7363 61.3043 42.7491C58.9389 42.7937 56.1139 42.6767 52.8516 42.4425C47.4146 42.0522 43.3228 42.0076 40.7163 42.0578C39.7354 42.0578 38.9787 42.108 38.4462 42.1415L37.9922 42.1749C37.9834 42.1461 37.9722 42.1181 37.9586 42.0913C37.8778 41.9046 37.7505 41.7414 37.5886 41.6174C37.3862 41.4688 37.1394 41.3922 36.888 41.4C36.7841 41.402 36.6807 41.415 36.5797 41.439C36.4343 41.472 36.2859 41.4906 36.1369 41.4947C35.9493 41.4944 35.7621 41.4813 35.5763 41.4557C35.3295 41.4198 35.0803 41.4031 34.8308 41.4055C34.5936 41.4119 34.3574 41.438 34.1246 41.4836C33.7884 41.55 33.4799 41.7151 33.239 41.9575C33.0758 42.1198 32.9413 42.3083 32.841 42.515H32.656C32.202 42.515 31.4901 42.5484 30.683 42.6376C29.8163 42.729 28.9592 42.895 28.1214 43.1338C28.0562 43.1532 27.9956 43.1852 27.9429 43.2279C27.8901 43.2706 27.8464 43.3233 27.8141 43.3828C27.7819 43.4423 27.7617 43.5076 27.7548 43.5749C27.7479 43.6422 27.7544 43.7102 27.7739 43.775C27.7934 43.8398 27.8255 43.9001 27.8685 43.9525C27.9114 44.005 27.9643 44.0485 28.0242 44.0806C28.0841 44.1127 28.1497 44.1327 28.2173 44.1396C28.285 44.1465 28.3533 44.14 28.4185 44.1206C29.1955 43.8987 29.9909 43.7457 30.7951 43.6635C31.4565 43.591 32.045 43.5575 32.4767 43.5464C32.4262 43.775 32.3814 44.0091 32.3477 44.2711C32.2749 44.8287 32.23 45.4419 32.2076 46.1444C32.2076 46.2949 32.2076 46.4454 32.2076 46.6015C32.2076 46.7576 32.2076 46.9974 32.2076 47.1981L31.3892 47.2315C28.6707 47.2873 26.877 46.8078 25.784 46.1165C25.3182 45.8276 24.9327 45.4269 24.663 44.9513C24.435 44.5393 24.3118 44.078 24.3042 43.6077C24.3123 42.6964 24.6171 41.8122 25.173 41.0878C25.4723 40.6574 25.8287 40.2692 26.2324 39.9337C26.975 39.3557 27.8423 38.9569 28.766 38.7685C30.3558 38.4302 31.9775 38.262 33.6033 38.2668C36.8711 38.1999 41.4506 38.4452 48.0872 39.0138C51.3847 39.3245 54.6964 39.4603 58.0084 39.4208C62.4926 39.3316 65.0262 38.7797 66.4723 38.2166C67.0015 38.0306 67.4973 37.7614 67.9409 37.4193C68.0194 37.3078 68.0754 37.2521 68.1315 37.2019V37.2242ZM69.8859 24.8196C69.8523 24.9478 69.813 25.1151 69.7514 25.3269C69.432 26.5019 68.8408 27.5864 68.025 28.4936C67.4921 29.0789 66.8766 29.5841 66.1977 29.9933C65.0006 30.6998 63.6875 31.1906 62.3188 31.4428C62.2523 31.4555 62.189 31.4811 62.1326 31.5184C62.0761 31.5556 62.0277 31.6037 61.9901 31.6597C61.9526 31.7158 61.9266 31.7787 61.9138 31.8448C61.9009 31.911 61.9014 31.979 61.9153 32.0449C61.928 32.1113 61.9538 32.1744 61.9912 32.2308C62.0285 32.2872 62.0767 32.3357 62.133 32.3735C62.1892 32.4113 62.2524 32.4377 62.3189 32.4511C62.3855 32.4646 62.454 32.4649 62.5206 32.4519C63.8348 32.2052 65.1033 31.7596 66.2817 31.1306C66.6902 31.9474 66.9844 32.8158 67.1562 33.7119C67.3121 34.5021 67.4003 35.3041 67.4196 36.1092V36.4771C66.8948 36.9207 66.2728 37.2358 65.6035 37.397C64.2246 37.8375 61.8816 38.2723 58.0084 38.3504C54.7339 38.386 51.4598 38.2521 48.1993 37.949C41.5683 37.3915 36.9384 37.1294 33.6257 37.1963C30.739 37.2521 28.8164 37.542 27.3927 38.0828C26.7305 38.3213 26.1129 38.668 25.5654 39.1086C25.0923 39.4994 24.6738 39.9512 24.3211 40.4522C23.6378 41.3583 23.2645 42.4584 23.2561 43.591C23.2652 44.2318 23.4347 44.8603 23.7493 45.4196C24.3568 46.3865 25.2846 47.1121 26.3726 47.4713C27.9906 48.0372 29.7046 48.2815 31.4173 48.1904C31.7199 48.1904 32.0338 48.1904 32.3533 48.1514C32.4962 49.0125 32.7544 49.8507 33.1213 50.6435C33.2957 51.0302 33.5324 51.3861 33.8219 51.6972C33.9577 51.8376 34.1147 51.956 34.2871 52.0484C34.46 52.139 34.6523 52.1868 34.8477 52.1878C34.9092 52.1933 34.9711 52.1933 35.0326 52.1878C35.2164 52.1537 35.3882 52.073 35.5315 51.9536C35.7551 51.7587 35.92 51.5059 36.0079 51.2233C36.1505 50.7734 36.2315 50.3065 36.249 49.8351C36.2826 49.3278 36.2826 48.787 36.249 48.2629C36.249 48.1514 36.249 48.0343 36.249 47.9228H37.0897C41.0134 47.8448 45.2453 48.0957 49.197 48.3577C53.1487 48.6197 56.8201 48.8873 59.6844 48.8316C60.3066 48.8316 60.8895 48.7926 61.4332 48.7424C61.1642 48.9041 60.8727 49.0713 60.57 49.2441C56.5287 51.5522 49.4997 54.9196 40.4697 55.098C35.5282 55.1799 30.6151 54.3384 25.9858 52.6171C23.0709 51.5847 20.4095 49.9486 18.1777 47.8169C15.3233 44.9724 13.2406 41.4546 12.1241 37.5922C11.1236 34.2276 10.5936 30.742 10.549 27.2336C10.5143 25.5591 10.5741 23.8839 10.7284 22.216C10.7844 21.6028 10.8461 21.101 10.8909 20.7888C10.8909 20.7052 10.8909 20.6327 10.8909 20.5658C11.4851 20.3372 12.068 20.0808 12.6398 19.802C15.4009 18.4069 17.9799 16.6806 20.3189 14.6617C21.4205 13.7365 22.472 12.754 23.4691 11.7181C23.5387 11.6789 23.5983 11.6243 23.6434 11.5586C23.6884 11.4928 23.7176 11.4176 23.7287 11.3388C23.7398 11.26 23.7325 11.1797 23.7074 11.1041C23.6823 11.0286 23.6401 10.9598 23.584 10.903C23.5278 10.8463 23.4593 10.8032 23.3838 10.7771C23.3082 10.7509 23.2276 10.7424 23.1482 10.7522C23.0688 10.762 22.9928 10.7899 22.9259 10.8336C22.8591 10.8774 22.8033 10.9358 22.7628 11.0045C21.1199 12.7139 19.3348 14.2824 17.4266 15.6931C15.7739 16.9325 14.008 18.0151 12.1521 18.9267C10.2864 19.864 8.26964 20.4679 6.19377 20.7107C5.85746 20.7386 5.54356 20.7609 5.24649 20.7665C4.56123 20.7928 3.87579 20.7196 3.21179 20.5491C2.54237 20.3962 1.94763 20.0156 1.53023 19.4731C1.18045 18.9441 1.00061 18.322 1.01455 17.689C1.04572 16.4302 1.3477 15.1926 1.90017 14.0596C2.47473 12.781 3.21328 11.5816 4.09742 10.4916C4.93122 9.51267 5.87111 8.6283 6.90003 7.85455C8.95053 6.25152 11.2141 4.93822 13.6263 3.95197C16.4167 2.79918 19.3951 2.16248 22.4153 2.07316C24.744 2.02177 27.0643 2.36682 29.2761 3.0934L29.4442 3.14358L29.6068 3.08783C32.8814 2.10898 36.2772 1.5892 39.6962 1.54352C43.8234 1.43038 47.9365 2.07096 51.8315 3.43348C56.0553 4.95873 59.8658 7.43772 62.9634 10.6755C61.8107 10.402 60.6334 10.2432 59.449 10.2017C59.2023 10.2017 58.9613 10.2017 58.7203 10.2017C55.9801 10.2899 53.3378 11.2362 51.1701 12.9056C50.3121 13.5395 49.5264 14.2649 48.8271 15.0687C48.2767 14.3987 47.6482 13.7961 46.9549 13.2736C44.8474 11.6791 42.0728 10.7536 38.6872 10.6198C38.4518 10.6198 38.222 10.6198 37.9978 10.6198C36.4804 10.6557 34.9835 10.9773 33.5865 11.5676C31.9088 12.2848 30.3703 13.2886 29.0406 14.5335C28.4426 15.0761 27.8931 15.6693 27.3983 16.3064C27.3578 16.3606 27.3285 16.4222 27.3119 16.4876C27.2954 16.5531 27.2919 16.6212 27.3018 16.6879C27.3117 16.7547 27.3347 16.8189 27.3696 16.8769C27.4044 16.9348 27.4503 16.9853 27.5048 17.0256C27.5593 17.0659 27.6212 17.0951 27.687 17.1115C27.7528 17.128 27.8213 17.1314 27.8884 17.1216C27.9556 17.1117 28.0201 17.0888 28.0783 17.0542C28.1366 17.0196 28.1874 16.9738 28.2279 16.9197C29.0201 15.9225 29.9397 15.0323 30.9632 14.2715C31.9065 13.5521 32.9389 12.9562 34.0349 12.4986C35.2956 11.9745 36.6431 11.6872 38.009 11.6512H38.6424C41.8654 11.7794 44.4102 12.6547 46.3272 14.0987C48.2756 15.6029 49.6578 17.7161 50.2508 20.0975L50.3125 20.3149L50.503 20.4153C50.6139 20.4785 50.7189 20.5512 50.8169 20.6327C50.8785 20.683 50.9332 20.7411 50.9795 20.8055C50.8835 20.882 50.7756 20.9423 50.66 20.9839C50.429 21.0754 50.1909 21.1481 49.9481 21.2014C49.1354 21.3853 47.863 21.6864 46.1534 21.9484C44.0424 22.2783 41.9112 22.4645 39.7746 22.5059C35.2093 22.5752 30.652 22.1036 26.1988 21.101C26.1326 21.0864 26.0641 21.0848 25.9972 21.0965C25.9304 21.1082 25.8665 21.1329 25.8093 21.1691C25.752 21.2054 25.7025 21.2525 25.6635 21.3077C25.6246 21.363 25.5969 21.4254 25.5822 21.4913C25.5675 21.5571 25.566 21.6253 25.5777 21.6918C25.5895 21.7582 25.6143 21.8218 25.6507 21.8787C25.6871 21.9357 25.7345 21.9849 25.7901 22.0237C25.8456 22.0624 25.9083 22.0899 25.9746 22.1045L26.154 22.138C28.6381 22.6838 31.1542 23.0749 33.6874 23.3087C33.8107 23.9328 34.1163 24.5068 34.5659 24.959C35.0156 25.4112 35.5893 25.7215 36.2153 25.851C33.8351 25.8098 31.4596 25.6236 29.1023 25.2935C27.9813 25.1374 27.0564 24.9813 26.4118 24.8586L25.6719 24.7137L25.4813 24.6691H25.4309C25.2971 24.6388 25.1567 24.6625 25.0405 24.7352C24.9244 24.8079 24.842 24.9235 24.8115 25.0565C24.781 25.1896 24.805 25.3293 24.878 25.4448C24.9511 25.5603 25.0673 25.6423 25.2011 25.6726C29.3527 26.5254 33.5852 26.9273 37.824 26.8712C41.4562 26.7988 45.335 26.3137 48.6982 24.9088L48.743 24.9757C48.7962 25.0616 48.827 25.1593 48.8327 25.26C48.8347 25.2972 48.8347 25.3344 48.8327 25.3715C48.7623 25.5615 48.6819 25.7476 48.5917 25.929C47.9125 27.2688 46.9888 28.4711 45.8675 29.4748C44.2359 30.9626 42.2012 31.9415 40.0157 32.2902C38.9549 32.4608 37.8837 32.5595 36.8095 32.5857C35.2519 32.6421 33.6951 32.454 32.1964 32.0282C31.8245 31.9144 31.4611 31.7747 31.109 31.6101L30.8511 31.4819L30.7951 31.4484C30.6808 31.3846 30.5464 31.3664 30.4192 31.3976C30.292 31.4288 30.1815 31.507 30.1101 31.6163C30.0388 31.7256 30.0119 31.8578 30.035 31.9861C30.0581 32.1144 30.1295 32.2291 30.2346 32.307C30.3074 32.3571 32.4262 33.7119 36.8487 33.6171C37.9756 33.5938 39.0995 33.4914 40.2119 33.3105C41.7733 33.0657 43.2717 32.5203 44.6232 31.7049C46.1758 30.7373 47.5115 29.462 48.5468 27.9584C48.9074 27.4417 49.226 26.8974 49.4997 26.3305C49.592 26.1385 49.6724 25.9411 49.7407 25.7395C49.7657 25.6683 49.7863 25.5957 49.8024 25.5221C50.7619 25.675 51.6921 25.974 52.5602 26.4085C53.5506 26.9073 54.4385 27.5862 55.1778 28.41C56.1365 29.5025 56.8425 30.7909 57.2461 32.1843C57.2961 32.3028 57.3885 32.3986 57.5054 32.4532C57.6223 32.5078 57.7554 32.5172 57.879 32.4798C58.0025 32.4423 58.1077 32.3605 58.174 32.2503C58.2404 32.1401 58.2633 32.0093 58.2382 31.8833C57.785 30.327 56.9883 28.8909 55.9065 27.6796C55.5625 27.2966 55.1876 26.9424 54.7854 26.6204C56.0542 26.7655 57.3313 26.8251 58.6082 26.7988C62.4463 26.7231 66.2322 25.8992 69.7514 24.3736L69.8523 24.3234C69.8977 24.3992 69.921 24.4861 69.9195 24.5743C69.9177 24.6497 69.9064 24.7246 69.8859 24.7973V24.8196ZM49.7575 22.5617C51.3158 22.8906 52.7788 23.1192 54.1464 23.3087C54.3987 24.2063 55.2002 25.6224 57.7394 25.7897C56.4556 25.7793 55.1743 25.6769 53.9054 25.483C53.3449 25.3994 52.9077 25.3102 52.6162 25.2433L52.2799 25.1597H52.1958C51.9716 25.0705 51.753 24.9924 51.5456 24.9255C50.9131 24.719 50.2616 24.5752 49.6006 24.4962L49.5109 24.3624C49.6256 24.1762 49.7035 23.97 49.7407 23.7548C49.7822 23.5211 49.7991 23.2838 49.7912 23.0467C49.7907 22.8771 49.7794 22.7076 49.7575 22.5394V22.5617ZM48.7542 23.0467C48.7644 23.2552 48.7417 23.464 48.6869 23.6656C48.6729 23.7218 48.6482 23.7747 48.6141 23.8217C48.6027 23.8383 48.5873 23.8517 48.5692 23.8607C45.7808 24.9878 42.8204 25.6363 39.8139 25.7785C41.2083 25.3548 42.4375 24.5138 43.334 23.3701C44.455 23.2753 45.4135 23.1471 46.2879 23.0077C47.1623 22.8683 48.0367 22.7066 48.715 22.5673C48.7365 22.7188 48.7496 22.8714 48.7542 23.0244V23.0467ZM58.9893 25.7283C59.8668 25.6644 60.7224 25.4256 61.5052 25.0263C62.2881 24.6269 62.9822 24.075 63.5464 23.4035C64.7224 23.2716 65.8902 23.0743 67.044 22.8126C67.9913 22.5951 68.8041 22.3666 69.4879 22.177C69.4967 22.3125 69.4967 22.4485 69.4879 22.584C69.4984 22.7943 69.4757 23.005 69.4207 23.2084C69.4046 23.2611 69.382 23.3117 69.3534 23.3589C69.3398 23.377 69.3226 23.3922 69.3029 23.4035C66.0429 24.8175 62.5437 25.6063 58.9893 25.7283ZM71.7244 20.3372C71.6289 20.4157 71.5209 20.4778 71.4049 20.5212C71.1756 20.6105 70.9394 20.6814 70.6987 20.733L69.9363 20.9282C69.886 20.9226 69.8353 20.9226 69.785 20.9282C69.7187 20.9446 69.656 20.9729 69.6 21.0118C68.8321 21.2292 67.9185 21.4968 66.7974 21.7477C64.6683 22.2284 62.4951 22.4899 60.3122 22.5282C57.3084 22.5968 54.3054 22.3614 51.3494 21.8258C51.4037 21.7975 51.4561 21.7658 51.5064 21.731C51.661 21.6266 51.7926 21.4919 51.8931 21.3352C51.9856 21.1799 52.034 21.0027 52.0333 20.8222C52.0276 20.7039 52.003 20.5872 51.9604 20.4766C51.895 20.3155 51.8 20.168 51.6801 20.0417C51.5442 19.8949 51.3919 19.7639 51.2261 19.6515L51.1813 19.6236C50.8113 18.3032 50.2323 17.0499 49.4661 15.9106C50.1659 15.0794 50.9596 14.3311 51.8315 13.6805C53.8194 12.1666 56.2346 11.3106 58.7371 11.2331C58.9613 11.2331 59.1799 11.2331 59.4097 11.2331C62.6327 11.3613 65.1831 12.231 67.0945 13.6805C69.0452 15.1827 70.428 17.2968 71.0181 19.6793L71.0798 19.8912L71.276 19.9971C71.3852 20.0581 71.4884 20.129 71.5843 20.209C71.6368 20.2535 71.6838 20.304 71.7244 20.3595V20.3372ZM75.9227 13.7809C75.8509 14.3642 75.6289 14.9192 75.2781 15.3921C74.8163 15.9659 74.1881 16.3844 73.4788 16.5907C72.8576 16.7816 72.212 16.883 71.5619 16.8918C71.3601 16.8918 71.1919 16.8918 71.063 16.8918C70.2782 15.2917 69.1261 13.8976 67.6999 12.822C66.8503 12.1837 65.9191 11.6606 64.9309 11.2665C61.5751 7.358 57.2732 4.36473 52.4312 2.56935C54.5688 1.60252 56.8777 1.06628 59.2248 0.99159C60.9312 0.94739 62.6309 1.22158 64.2358 1.79998C67.3131 2.92421 70.1185 4.6793 72.4699 6.95138C73.4574 7.9001 74.3098 8.97865 75.0035 10.1571C75.5533 11.0675 75.8744 12.0964 75.9395 13.1565C75.9549 13.3721 75.9493 13.5887 75.9227 13.8032V13.7809Z"></path>
</svg>
