<?xml version="1.0" encoding="utf-8"?>
<!-- Generator: Adobe Illustrator 24.1.2, SVG Export Plug-In . SVG Version: 6.00 Build 0)  -->
<svg version="1.1" id="Layer_1" xmlns="http://www.w3.org/2000/svg" xmlns:xlink="http://www.w3.org/1999/xlink" x="0px" y="0px"
	 viewBox="0 0 419.3 111.3" style="enable-background:new 0 0 419.3 111.3;" xml:space="preserve">
<style type="text/css">
	.st0{fill:none;}
	.st1{fill:#400072;}
	.st2{fill:#FF9900;}
</style>
<g>
	<path class="st0" d="M172.49,46.5c0.15,0.01,0.31,0.02,0.46,0.04c-0.06-0.23-0.12-0.45-0.18-0.66
		C172.68,46.07,172.59,46.28,172.49,46.5z"/>
	<path class="st1" d="M166.63,64c-7.7,4.8-3.2,14.4,3,13.2c6.2-1.2,6.2-6.7,6.2-6.7S174.33,59.2,166.63,64z"/>
	<path class="st1" d="M317.31,13.85c-8.14-0.92-14,1.01-18.27,4.25c-1.19-1.3-2.75-2.28-4.75-2.79l-0.13-0.03
		c-4.15-1.02-13.88-3.41-21.11,2.24c-0.6,0.47-1.15,0.97-1.67,1.51c-1.31-1.02-2.86-1.67-4.53-1.87c-0.85-0.1-1.69-0.22-2.51-0.34
		c-4.73-0.68-10.61-1.52-15.4,2.12c-2.21,1.69-3.82,4.08-4.79,7.14c-1.92-1.06-4.08-1.53-6.29-1.35c-3.41,0.28-6.56,2.05-9.39,4.61
		c-0.7-3.31-1.85-6.43-3.62-9c-2.45-3.55-5.88-5.84-9.95-6.64c-6.08-1.82-13.75-1.75-17.6,3.8c-0.92,1.31-1.58,2.93-1.9,7.03
		c-1.42-1.39-2.86-2.52-4.22-3.44c-9.97-6.74-21.94-6.81-29.82-4.62c-4.56,1.26-8.44,3.8-11.32,7.31c-0.4-0.99-0.76-1.76-1.05-2.27
		c-3.67-6.34-14.82-7.12-21.46-5.24c-6.72,1.9-10.65,6.62-10.5,12.63c0.05,1.94-0.57,3.67-1.35,5.01c-0.25-1.25-0.51-2.63-0.77-3.99
		c-1.23-6.5-5.23-8.83-7.5-9.64c-7.32-2.61-15.32,3.01-21.48,8.18c-2.97,2.5-4.39,6.47-4,11.19c0.43,5.2,3.14,11.78,8.3,17.83
		c-6.12,5.65-8.03,18.73-8.12,19.36c-1.22,8.66,9.36,14.61,13.96,16.77c5.78,2.71,12.9,4.64,20.06,4.64c8.27,0,16.59-2.58,22.9-9.53
		l0.26-0.31c1.19-1.47,2.27-2.96,3.29-4.44c2.23,5.23,7.66,11.74,20.87,13.01c1.53,0.15,3.03,0.23,4.51,0.23
		c9.95,0,18.58-3.45,25.15-10.11c1.53-1.55,2.92-3.28,4.18-5.13c0.03,0.81,0.05,1.44,0.05,1.84c0,4.87,2.05,7.71,3.77,9.24
		c4.21,3.73,9.74,3.05,14.18,2.51c0.53-0.06,1.06-0.13,1.59-0.19c3.68-0.39,8.25-2.04,12.69-6.72c1.18,3.32,3.56,5.86,6.9,7.38
		c2.54,1.15,5.33,1.57,8.06,1.57c6.49,0,12.56-2.36,13.63-2.8c4.19-1.68,6.79-5.22,8.5-9.31c0.6,3.64,1.83,6.61,4.26,8.82
		c4.18,3.8,9.7,3.37,14.56,2.98c0.76-0.06,1.48-0.11,2.17-0.15c4.34-0.28,8.82-0.56,12.54-3.88c0.41-0.36,0.78-0.75,1.13-1.15
		c0.27,0.56,0.59,1.1,0.97,1.62c1.57,2.13,3.91,3.46,6.59,3.75c0.72,0.08,1.65,0.22,2.64,0.37c2.45,0.38,5.43,0.84,8.52,0.84
		c4.06,0,8.29-0.79,11.71-3.61c2.3-1.9,5.11-5.5,5.37-11.88C338.98,37.61,332.68,15.58,317.31,13.85z M133.83,84
		c-14.8,16.3-45.8,0.9-44.8-6.2s5.1-18.1,8.6-15.6c3.4,2.4,12,17,23.7,10.8c11.5-6.4,13.2-20.2,13.2-20.2s-14.7,16.9-29.2,8.3
		c-14.5-8.6-19.3-23.6-14.9-27.3s15.7-12.6,17.6-2.6c1.9,10,2.4,12.6,6.2,12.4c3.8-0.2,10-6.9,9.8-14.9c-0.2-8,16.7-7.5,18.9-3.7
		S154.83,58,133.83,84z M164.13,90c-26-2.5-15.5-29-4.3-33.8c11.2-4.8,18.2-3.2,20.9,3.6c0,0,1.9-23.5-8.5-22.2
		c-7.7,1.5-3.9,7.5-8.9,7.7s-9.2,2.3-11-1.5c-1.8-3.8-1-17.3,10.9-20.6c11.9-3.3,32.4,0.7,34.9,23.1S190.23,92.6,164.13,90z
		 M172.49,46.5c0.1-0.22,0.2-0.42,0.28-0.62c0.06,0.21,0.13,0.42,0.18,0.66C172.8,46.52,172.64,46.51,172.49,46.5z M255.53,88.3
		c-5.8,2.4-17.2,4.4-19.4-2.1c-2.2-6.4-4.2-15.1-4.2-15.1c-4.4,11.4-10.2,16.7-15.8,17.3c-5.6,0.6-11.8,2.1-11.8-4.6
		s-3.8-58.8-1.3-62.3c2.4-3.5,10.2-1,10.2-1c14.2,2.3,7.7,34,7.7,34s8.9-22.1,17.5-22.8c8.6-0.7,8.2,23.4,8.2,23.4
		s2.3-13.8,3.6-24.1c1.3-10.2,8.2-7.8,15.8-6.9c7.6,0.9-1.8,38.3-2.7,44.2C262.43,74.2,261.33,86,255.53,88.3z M330.13,82.9
		c-0.5,12.3-14,8.3-20.5,7.6s2-19.4,0-27.2c-2-7.7-9.8-0.6-10.7,13.4c-0.9,14-5.1,12.9-14,13.6c-8.9,0.7-11.6,0.4-11.8-11.8
		c-0.2-12.3,0-44.1,0-44.1c0.1-17.2,14.2-13.6,19.5-12.3c5.4,1.4,1.6,18.5,1.6,18.5c2.7-9.6,6.3-21.6,22.3-19.8
		S330.63,70.6,330.13,82.9z"/>
	<path class="st2" d="M142.93,25c-2.2-3.8-19.1-4.3-18.9,3.7c0.2,8-6,14.7-9.8,14.9c-3.8,0.2-4.3-2.4-6.2-12.4
		c-1.9-10-13.2-1.1-17.6,2.6s0.4,18.7,14.9,27.3c14.5,8.6,29.2-8.3,29.2-8.3s-1.7,13.8-13.2,20.2c-11.7,6.2-20.3-8.4-23.7-10.8
		c-3.5-2.5-7.6,8.5-8.6,15.6s30,22.5,44.8,6.2C154.83,58,145.13,28.8,142.93,25z"/>
	<path class="st2" d="M198.13,46.3c-2.5-22.4-23-26.4-34.9-23.1c-11.9,3.3-12.7,16.8-10.9,20.6c1.8,3.8,6,1.7,11,1.5
		s1.2-6.2,8.9-7.7c10.4-1.3,8.5,22.2,8.5,22.2c-2.7-6.8-9.7-8.4-20.9-3.6c-11.2,4.8-21.7,31.3,4.3,33.8
		C190.23,92.6,200.63,68.7,198.13,46.3z M169.63,77.2c-6.2,1.2-10.7-8.4-3-13.2s9.2,6.5,9.2,6.5S175.83,76,169.63,77.2z"/>
	<path class="st2" d="M266.03,24.1c-7.6-0.9-14.5-3.3-15.8,6.9c-1.3,10.3-3.6,24.1-3.6,24.1s0.4-24.1-8.2-23.4
		c-8.6,0.7-17.5,22.8-17.5,22.8s6.5-31.7-7.7-34c0,0-7.8-2.5-10.2,1c-2.5,3.5,1.3,55.6,1.3,62.3s6.2,5.2,11.8,4.6
		c5.6-0.6,11.4-5.9,15.8-17.3c0,0,2,8.7,4.2,15.1c2.2,6.5,13.6,4.5,19.4,2.1c5.8-2.3,6.9-14.1,7.8-20
		C264.23,62.4,273.63,25,266.03,24.1z"/>
	<path class="st2" d="M316.53,20.8c-16-1.8-19.6,10.2-22.3,19.8c0,0,3.8-17.1-1.6-18.5c-5.3-1.3-19.4-4.9-19.5,12.3
		c0,0-0.2,31.8,0,44.1c0.2,12.2,2.9,12.5,11.8,11.8c8.9-0.7,13.1,0.4,14-13.6c0.9-14,8.7-21.1,10.7-13.4c2,7.8-6.5,26.5,0,27.2
		s20,4.7,20.5-7.6C330.63,70.6,332.53,22.6,316.53,20.8z"/>
</g>
</svg>
